<svg width="43" height="45" viewBox="0 0 43 45" fill="none" xmlns="http://www.w3.org/2000/svg">
<g filter="url(#filter0_d_0_410)">
<g clip-path="url(#clip0_0_410)">
<path d="M30.6875 32.1875H27.625V23.3987C27.8956 23.343 28.1507 23.2292 28.3729 23.065C28.595 22.9008 28.7786 22.6902 28.9111 22.4478C29.0436 22.2055 29.1218 21.9371 29.1401 21.6615C29.1585 21.3859 29.1166 21.1097 29.0173 20.8519L27.625 17.231V10.3125C27.625 10.255 27.6137 10.1981 27.5917 10.1451C27.5697 10.092 27.5375 10.0437 27.4969 10.0031C27.4563 9.96248 27.408 9.93025 27.3549 9.90827C27.3019 9.88629 27.245 9.87498 27.1875 9.875H8.8125C8.75504 9.87498 8.69815 9.88629 8.64506 9.90827C8.59197 9.93025 8.54374 9.96248 8.50311 10.0031C8.46248 10.0437 8.43025 10.092 8.40827 10.1451C8.38629 10.1981 8.37498 10.255 8.375 10.3125V17.231L6.98266 20.8519C6.88344 21.1097 6.84155 21.3859 6.85989 21.6615C6.87823 21.9371 6.95636 22.2055 7.08886 22.4478C7.22136 22.6902 7.40504 22.9008 7.62715 23.065C7.84925 23.2292 8.10445 23.343 8.375 23.3987V32.1875H5.3125C5.25504 32.1875 5.19814 32.1988 5.14506 32.2208C5.09197 32.2428 5.04374 32.275 5.00311 32.3156C4.96248 32.3562 4.93025 32.4045 4.90827 32.4576C4.88629 32.5106 4.87498 32.5675 4.875 32.625V35.6875C4.87498 35.745 4.88629 35.8019 4.90827 35.8549C4.93025 35.908 4.96248 35.9563 5.00311 35.9969C5.04374 36.0375 5.09197 36.0697 5.14506 36.0917C5.19814 36.1137 5.25504 36.125 5.3125 36.125H30.6875C30.745 36.125 30.8019 36.1137 30.8549 36.0917C30.908 36.0697 30.9563 36.0375 30.9969 35.9969C31.0375 35.9563 31.0697 35.908 31.0917 35.8549C31.1137 35.8019 31.125 35.745 31.125 35.6875V32.625C31.125 32.5675 31.1137 32.5106 31.0917 32.4576C31.0697 32.4045 31.0375 32.3562 30.9969 32.3156C30.9563 32.275 30.908 32.2428 30.8549 32.2208C30.8019 32.1988 30.745 32.1875 30.6875 32.1875ZM25.875 32.1875V22.8562C26.1144 23.1043 26.4169 23.2826 26.75 23.3719V32.1875H25.875ZM22.375 32.625V35.25H20.625V32.1875H21.5C21.616 32.1875 21.7273 32.1414 21.8094 32.0594C21.8914 31.9773 21.9375 31.866 21.9375 31.75V30.4375C21.9375 30.3215 21.8914 30.2102 21.8094 30.1281C21.7273 30.0461 21.616 30 21.5 30H18.875C18.759 30 18.6477 30.0461 18.5656 30.1281C18.4836 30.2102 18.4375 30.3215 18.4375 30.4375V31.75C18.4375 31.866 18.4836 31.9773 18.5656 32.0594C18.6477 32.1414 18.759 32.1875 18.875 32.1875H19.75V35.25H18V32.625C18 32.5675 17.9887 32.5106 17.9667 32.4576C17.9447 32.4045 17.9125 32.3562 17.8719 32.3156C17.8313 32.275 17.783 32.2428 17.7299 32.2208C17.6769 32.1988 17.62 32.1875 17.5625 32.1875H16.6875V30.875C16.6875 30.8175 16.6762 30.7606 16.6542 30.7076C16.6322 30.6545 16.6 30.6062 16.5594 30.5656C16.5188 30.525 16.4705 30.4928 16.4174 30.4708C16.3644 30.4488 16.3075 30.4375 16.25 30.4375H15.375V23.3976C15.7991 23.3098 16.1805 23.0798 16.4562 22.7457C16.483 22.7791 16.5114 22.8113 16.5415 22.843C16.7186 23.0317 16.9326 23.1818 17.1703 23.2841C17.408 23.3863 17.6642 23.4386 17.9229 23.4375H18.0771C18.3358 23.4386 18.592 23.3863 18.8297 23.2841C19.0674 23.1818 19.2814 23.0317 19.4585 22.843C19.4886 22.8113 19.517 22.7791 19.5438 22.7457C19.607 22.8218 19.6759 22.893 19.75 22.9586V24.3125C19.17 24.3131 18.614 24.5437 18.2038 24.9538C17.7937 25.364 17.5631 25.92 17.5625 26.5C17.5625 26.5575 17.5738 26.6144 17.5958 26.6674C17.6178 26.7205 17.65 26.7688 17.6906 26.8094C17.7312 26.85 17.7795 26.8822 17.8326 26.9042C17.8856 26.9262 17.9425 26.9375 18 26.9375H22.375C22.4325 26.9375 22.4894 26.9262 22.5424 26.9042C22.5955 26.8822 22.6438 26.85 22.6844 26.8094C22.725 26.7688 22.7572 26.7205 22.7792 26.6674C22.8012 26.6144 22.8125 26.5575 22.8125 26.5C22.8119 25.92 22.5813 25.364 22.1712 24.9538C21.761 24.5437 21.205 24.3131 20.625 24.3125V23.3976C20.7522 23.4242 20.8817 23.4376 21.0116 23.4375H21.1484C21.4245 23.4377 21.6973 23.3777 21.9479 23.2618C22.1984 23.1458 22.4207 22.9766 22.5992 22.7659C22.6107 22.7528 22.6216 22.7391 22.632 22.7255C22.8102 22.9484 23.0364 23.1282 23.2938 23.2515C23.5512 23.3748 23.8331 23.4384 24.1184 23.4375H24.2032C24.4782 23.438 24.75 23.379 25 23.2647V30.4375H24.125C24.0675 30.4375 24.0106 30.4488 23.9576 30.4708C23.9045 30.4928 23.8562 30.525 23.8156 30.5656C23.775 30.6062 23.7428 30.6545 23.7208 30.7076C23.6988 30.7606 23.6875 30.8175 23.6875 30.875V32.1875H22.8125C22.755 32.1875 22.6981 32.1988 22.6451 32.2208C22.592 32.2428 22.5437 32.275 22.5031 32.3156C22.4625 32.3562 22.4303 32.4045 22.4083 32.4576C22.3863 32.5106 22.375 32.5675 22.375 32.625ZM19.3125 31.3125V30.875H21.0625V31.3125H19.3125ZM10.8053 21.2648L11.7711 17.75H13.5468L12.8955 21.7023C12.8565 21.9428 12.733 22.1616 12.5471 22.3193C12.3613 22.477 12.1253 22.5632 11.8816 22.5625H11.7968C11.6388 22.5624 11.483 22.526 11.3414 22.4559C11.1998 22.3859 11.0763 22.2842 10.9804 22.1586C10.8845 22.0331 10.8188 21.8872 10.7884 21.7321C10.7581 21.5771 10.7638 21.4172 10.8053 21.2648ZM11 23.2647C11.25 23.379 11.5218 23.438 11.7968 23.4375H11.8816C12.1669 23.4384 12.4488 23.3748 12.7062 23.2515C12.9636 23.1282 13.1898 22.9484 13.368 22.7255C13.3784 22.7391 13.3893 22.7528 13.4008 22.7659C13.6829 23.0988 14.0711 23.3244 14.5 23.4047V25.625H11V23.2647ZM14.8516 22.5625C14.7025 22.5626 14.5552 22.5302 14.4198 22.4675C14.2845 22.4049 14.1644 22.3136 14.0679 22.1999C13.9714 22.0862 13.9009 21.9528 13.8611 21.8091C13.8214 21.6654 13.8134 21.5147 13.8377 21.3676L14.4338 17.75H16.2254L16.0143 21.5913C15.9999 21.8536 15.8855 22.1005 15.6947 22.2811C15.5039 22.4618 15.2511 22.5625 14.9884 22.5625H14.8516ZM18.823 22.2415C18.7274 22.3433 18.6118 22.4243 18.4834 22.4795C18.3551 22.5348 18.2168 22.563 18.0771 22.5625H17.9229C17.7835 22.5625 17.6455 22.5341 17.5174 22.479C17.3893 22.424 17.2737 22.3434 17.1777 22.2423C17.0817 22.1411 17.0073 22.0215 16.9591 21.8907C16.9108 21.7599 16.8897 21.6206 16.897 21.4813L17.1015 17.75H18.8985L19.103 21.4786V21.4813C19.111 21.6205 19.0903 21.7598 19.0421 21.8905C18.994 22.0213 18.9194 22.1408 18.823 22.2415ZM19.9857 21.5912L19.7746 17.75H21.5662L22.1623 21.3676C22.1866 21.5147 22.1786 21.6654 22.1389 21.8091C22.0991 21.9528 22.0286 22.0862 21.9321 22.1999C21.8356 22.3136 21.7155 22.4049 21.5802 22.4675C21.4448 22.5302 21.2975 22.5626 21.1484 22.5625H21.0116C20.7489 22.5625 20.4961 22.4618 20.3053 22.2811C20.1145 22.1005 20.0001 21.8536 19.9857 21.5913V21.5912ZM20.625 25.1875C20.8964 25.1878 21.161 25.2721 21.3825 25.4288C21.6041 25.5854 21.7718 25.8068 21.8626 26.0625H18.5124C18.6032 25.8068 18.7709 25.5854 18.9925 25.4288C19.214 25.2721 19.4786 25.1878 19.75 25.1875H20.625ZM25.0202 22.1578C24.9248 22.284 24.8013 22.3863 24.6595 22.4566C24.5177 22.5268 24.3614 22.5631 24.2032 22.5625H24.1184C23.8747 22.5632 23.6387 22.477 23.4529 22.3193C23.267 22.1616 23.1435 21.9428 23.1045 21.7023L22.4532 17.75H24.2289L25.1941 21.2626C25.1941 21.2631 25.1947 21.2642 25.1947 21.2648C25.2366 21.417 25.2427 21.5768 25.2125 21.7318C25.1822 21.8868 25.1164 22.0326 25.0202 22.1578ZM24.5625 31.3125H25V32.1875H24.5625V31.3125ZM28.2009 21.1658C28.2608 21.3215 28.2819 21.4894 28.2624 21.655C28.2428 21.8207 28.1833 21.9791 28.0889 22.1166C27.9944 22.2541 27.868 22.3666 27.7204 22.4442C27.5727 22.5219 27.4084 22.5625 27.2416 22.5625C27.0167 22.562 26.7981 22.4879 26.6191 22.3515C26.4402 22.2152 26.3108 22.024 26.2507 21.8073L25.1362 17.75H26.8873L28.2009 21.1658ZM9.25 10.75H26.75V16.875H9.25V10.75ZM7.91125 22.1168C7.81565 21.9798 7.75539 21.8213 7.73583 21.6554C7.71627 21.4894 7.73802 21.3213 7.79914 21.1658L9.11273 17.75H10.8638L9.7493 21.8073C9.68917 22.024 9.55977 22.2152 9.38085 22.3515C9.20193 22.4879 8.98332 22.562 8.75836 22.5625C8.59138 22.5637 8.42668 22.5237 8.27889 22.4459C8.13111 22.3682 8.00482 22.2551 7.91125 22.1168ZM9.25 23.3719C9.58308 23.2826 9.88558 23.1043 10.125 22.8562V32.1875H9.25V23.3719ZM12.75 35.25H5.75V33.0625H12.75V35.25ZM13.1875 32.1875H11V26.5H14.5V35.25H13.625V32.625C13.625 32.5675 13.6137 32.5106 13.5917 32.4576C13.5697 32.4045 13.5375 32.3562 13.4969 32.3156C13.4563 32.275 13.408 32.2428 13.3549 32.2208C13.3019 32.1988 13.245 32.1875 13.1875 32.1875ZM15.375 31.3125H15.8125V32.625C15.8125 32.6825 15.8238 32.7394 15.8458 32.7924C15.8678 32.8455 15.9 32.8938 15.9406 32.9344C15.9812 32.975 16.0295 33.0072 16.0826 33.0292C16.1356 33.0512 16.1925 33.0625 16.25 33.0625H17.125V35.25H15.375V31.3125ZM30.25 35.25H23.25V33.0625H30.25V35.25Z" fill="url(#paint0_linear_0_410)"/>
<path d="M21.0625 14.25H20.5878C20.4961 13.7131 20.24 13.2178 19.8548 12.8327C19.4697 12.4475 18.9744 12.1914 18.4375 12.0997V11.625C18.4375 11.509 18.3914 11.3977 18.3094 11.3156C18.2273 11.2336 18.116 11.1875 18 11.1875C17.884 11.1875 17.7727 11.2336 17.6906 11.3156C17.6086 11.3977 17.5625 11.509 17.5625 11.625V12.0997C17.0256 12.1914 16.5303 12.4475 16.1452 12.8327C15.76 13.2178 15.5039 13.7131 15.4122 14.25H14.9375C14.8215 14.25 14.7102 14.2961 14.6281 14.3781C14.5461 14.4602 14.5 14.5715 14.5 14.6875C14.5005 15.1515 14.6851 15.5963 15.0131 15.9244C15.3412 16.2524 15.786 16.437 16.25 16.4375H19.75C20.214 16.437 20.6588 16.2524 20.9869 15.9244C21.3149 15.5963 21.4995 15.1515 21.5 14.6875C21.5 14.5715 21.4539 14.4602 21.3719 14.3781C21.2898 14.2961 21.1785 14.25 21.0625 14.25ZM18 12.9375C18.3879 12.938 18.7646 13.0671 19.0713 13.3046C19.3779 13.5421 19.5971 13.8746 19.6946 14.25H16.3054C16.4029 13.8746 16.6221 13.5421 16.9287 13.3046C17.2354 13.0671 17.6121 12.938 18 12.9375ZM19.75 15.5625H16.25C16.0965 15.5624 15.9456 15.522 15.8127 15.4452C15.6797 15.3684 15.5693 15.258 15.4924 15.125H20.5076C20.4307 15.258 20.3203 15.3684 20.1873 15.4452C20.0544 15.522 19.9035 15.5624 19.75 15.5625Z" fill="url(#paint1_linear_0_410)"/>
<path d="M14.7427 13.3015C14.8026 13.2616 14.8517 13.2074 14.8857 13.1439C14.9197 13.0804 14.9375 13.0095 14.9375 12.9375V11.625H14.0625V12.6877C13.9237 12.7585 13.7768 12.8122 13.625 12.8477V11.625H12.75V12.8477C12.5982 12.8122 12.4513 12.7585 12.3125 12.6877V11.625H11.4375V12.9375C11.4375 13.0095 11.4553 13.0804 11.4893 13.1439C11.5233 13.2074 11.5724 13.2616 11.6323 13.3015C11.9689 13.5263 12.3502 13.6755 12.75 13.739V16.4375H13.625V13.739C14.0248 13.6755 14.4061 13.5263 14.7427 13.3015Z" fill="url(#paint2_linear_0_410)"/>
<path d="M22.8124 11.1875C22.3864 11.1875 21.9751 11.3429 21.6555 11.6245C21.3359 11.9061 21.13 12.2945 21.0763 12.7171C21.0227 13.1397 21.1249 13.5673 21.364 13.9198C21.603 14.2724 21.9625 14.5256 22.3749 14.6321V16.4375H23.2499V14.6321C23.6623 14.5256 24.0217 14.2724 24.2608 13.9198C24.4998 13.5673 24.6021 13.1397 24.5484 12.7171C24.4948 12.2945 24.2888 11.9061 23.9692 11.6245C23.6497 11.3429 23.2383 11.1875 22.8124 11.1875ZM22.8124 13.8125C22.6393 13.8125 22.4702 13.7612 22.3263 13.665C22.1824 13.5689 22.0702 13.4322 22.004 13.2723C21.9378 13.1125 21.9204 12.9365 21.9542 12.7668C21.988 12.5971 22.0713 12.4412 22.1937 12.3188C22.316 12.1964 22.4719 12.1131 22.6417 12.0793C22.8114 12.0456 22.9873 12.0629 23.1472 12.1291C23.3071 12.1953 23.4438 12.3075 23.5399 12.4514C23.6361 12.5953 23.6874 12.7644 23.6874 12.9375C23.6871 13.1695 23.5948 13.3919 23.4308 13.5559C23.2668 13.72 23.0444 13.8122 22.8124 13.8125Z" fill="url(#paint3_linear_0_410)"/>
</g>
<ellipse opacity="0.15" cx="26.0968" cy="12.5" rx="12.0968" ry="12.5" fill="url(#paint4_linear_0_410)"/>
</g>
<defs>
<filter id="filter0_d_0_410" x="0" y="0" width="42.1935" height="45" filterUnits="userSpaceOnUse" color-interpolation-filters="sRGB">
<feFlood flood-opacity="0" result="BackgroundImageFix"/>
<feColorMatrix in="SourceAlpha" type="matrix" values="0 0 0 0 0 0 0 0 0 0 0 0 0 0 0 0 0 0 127 0" result="hardAlpha"/>
<feOffset dy="4"/>
<feGaussianBlur stdDeviation="2"/>
<feComposite in2="hardAlpha" operator="out"/>
<feColorMatrix type="matrix" values="0 0 0 0 0 0 0 0 0 0 0 0 0 0 0 0 0 0 0.25 0"/>
<feBlend mode="normal" in2="BackgroundImageFix" result="effect1_dropShadow_0_410"/>
<feBlend mode="normal" in="SourceGraphic" in2="effect1_dropShadow_0_410" result="shape"/>
</filter>
<linearGradient id="paint0_linear_0_410" x1="4.875" y1="22.125" x2="30.4959" y2="22.2393" gradientUnits="userSpaceOnUse">
<stop stop-color="#FF5050"/>
<stop offset="1" stop-color="#FF7070" stop-opacity="0.84"/>
</linearGradient>
<linearGradient id="paint1_linear_0_410" x1="14.5" y1="13.6375" x2="21.3321" y2="13.6781" gradientUnits="userSpaceOnUse">
<stop stop-color="#FF5050"/>
<stop offset="1" stop-color="#FF7070" stop-opacity="0.84"/>
</linearGradient>
<linearGradient id="paint2_linear_0_410" x1="11.4375" y1="13.8708" x2="14.8536" y2="13.8819" gradientUnits="userSpaceOnUse">
<stop stop-color="#FF5050"/>
<stop offset="1" stop-color="#FF7070" stop-opacity="0.84"/>
</linearGradient>
<linearGradient id="paint3_linear_0_410" x1="21.0624" y1="13.6375" x2="24.4785" y2="13.6477" gradientUnits="userSpaceOnUse">
<stop stop-color="#FF5050"/>
<stop offset="1" stop-color="#FF7070" stop-opacity="0.84"/>
</linearGradient>
<linearGradient id="paint4_linear_0_410" x1="14" y1="11.6667" x2="37.6137" y2="11.7686" gradientUnits="userSpaceOnUse">
<stop stop-color="#FF7070"/>
<stop offset="1" stop-color="#FF7070" stop-opacity="0.65"/>
</linearGradient>
<clipPath id="clip0_0_410">
<rect width="28" height="28" fill="white" transform="translate(4 9)"/>
</clipPath>
</defs>
</svg>
